<svg xmlns="http://www.w3.org/2000/svg" width="1200" height="630" viewBox="0 0 1200 630" role="img" aria-label="Claude Test Lab embed image">
  <rect width="1200" height="630" fill="#F5F3FF"/>
  <rect x="70" y="70" width="1060" height="490" rx="28" fill="#1E1B4B"/>
  <rect x="110" y="110" width="400" height="410" rx="16" fill="#2E1065"/>
  <rect x="138" y="138" width="344" height="18" rx="9" fill="#A78BFA"/>
  <rect x="138" y="174" width="240" height="14" rx="7" fill="#6D28D9"/>
  <rect x="138" y="204" width="288" height="14" rx="7" fill="#6D28D9"/>
  <rect x="138" y="234" width="200" height="14" rx="7" fill="#6D28D9"/>
  <path d="M180 380 L180 480 Q180 498 198 498 L322 498 Q340 498 340 480 L340 380 Z" fill="#7C3AED"/>
  <circle cx="228" cy="448" r="14" fill="#C4B5FD"/>
  <circle cx="260" cy="456" r="14" fill="#DDD6FE"/>
  <circle cx="292" cy="448" r="14" fill="#C4B5FD"/>
  <text x="580" y="280" fill="#F5F3FF" font-family="Arial, sans-serif" font-size="72" font-weight="700">Claude Test Lab</text>
  <text x="580" y="356" fill="#C4B5FD" font-family="Arial, sans-serif" font-size="34">Farcaster Mini App diagnostics</text>
  <rect x="580" y="400" width="180" height="40" rx="8" fill="#7C3AED"/>
  <text x="670" y="426" fill="white" font-family="Arial, sans-serif" font-size="20" font-weight="600" text-anchor="middle">Check 1: Ready</text>
  <rect x="580" y="454" width="180" height="40" rx="8" fill="#7C3AED"/>
  <text x="670" y="480" fill="white" font-family="Arial, sans-serif" font-size="20" font-weight="600" text-anchor="middle">Check 2: Embed</text>
  <rect x="775" y="400" width="200" height="40" rx="8" fill="#6D28D9"/>
  <text x="875" y="426" fill="white" font-family="Arial, sans-serif" font-size="20" font-weight="600" text-anchor="middle">Check 3: Manifest</text>
</svg>
